<svg width="111" height="72" viewBox="0 0 111 72" fill="none" xmlns="http://www.w3.org/2000/svg">
<path d="M101 0C106.523 3.54342e-07 111 4.47715 111 10V62C111 67.5228 106.523 72 101 72H10C4.47715 72 2.57711e-07 67.5228 0 62V3C7.73119e-07 1.34315 1.34315 3.92594e-08 3 0H101ZM5 4C4.44772 4 4 4.44772 4 5V31C4 33.2091 5.79086 35 8 35H102C104.761 35 107 32.7614 107 30V9C107 6.23858 104.761 4 102 4H5Z" fill="url(#paint0_linear_532_29)"/>
<defs>
<linearGradient id="paint0_linear_532_29" x1="44.0841" y1="1.89349e-06" x2="84.3377" y2="109.338" gradientUnits="userSpaceOnUse">
<stop stop-color="#F0F0F0" stop-opacity="0.9"/>
<stop offset="0.5" stop-color="white" stop-opacity="0.695"/>
<stop offset="1" stop-color="#8A8A8A" stop-opacity="0.49"/>
</linearGradient>
</defs>
</svg>
